<?xml version="1.0" standalone="no"?>
<!DOCTYPE svg PUBLIC "-//W3C//DTD SVG 20010904//EN"
 "http://www.w3.org/TR/2001/REC-SVG-20010904/DTD/svg10.dtd">
<svg version="1.0" xmlns="http://www.w3.org/2000/svg"
 width="500.000000pt" height="500.000000pt" viewBox="0 0 500.000000 500.000000"
 preserveAspectRatio="xMidYMid meet">
<metadata>
Created by potrace 1.14, written by Peter Selinger 2001-2017
</metadata>
<g transform="translate(0.000000,500.000000) scale(0.100000,-0.100000)"
fill="#000000" stroke="none">
<path d="M2487 3384 c-1 -1 -24 -4 -52 -5 -102 -6 -230 -65 -310 -144 -40 -40
-50 -45 -90 -45 l-45 0 0 -79 c0 -44 -5 -92 -10 -107 -27 -71 -30 -211 -6
-303 47 -183 194 -333 378 -388 71 -21 216 -20 293 2 150 43 274 146 349 292
46 91 60 254 31 366 -47 181 -191 334 -363 386 -56 17 -167 33 -175 25z"/>
<path d="M1287 2083 c-2 -5 -3 -57 -3 -118 l1 -110 26 -3 c25 -3 25 -3 24 72
0 42 2 72 5 68 4 -4 28 -38 54 -75 37 -52 53 -67 69 -65 20 3 21 9 22 116 0
98 -2 113 -17 118 -30 9 -35 -3 -34 -71 1 -36 0 -65 -2 -65 -7 0 -27 26 -66
83 -35 52 -67 72 -79 50z"/>
<path d="M1614 2076 c-2 -6 -19 -55 -39 -109 -19 -54 -35 -102 -35 -107 0 -6
11 -10 25 -10 18 0 26 7 31 25 6 25 10 28 39 28 59 0 65 -3 65 -28 0 -21 5
-25 31 -25 25 0 29 3 25 18 -4 10 -21 63 -39 117 -33 99 -34 100 -66 101 -18
1 -35 -4 -37 -10z m53 -94 c10 -38 10 -38 -19 -38 -21 0 -27 4 -23 14 3 8 8
25 11 38 9 35 20 30 31 -14z"/>
<path d="M1825 2082 c-6 -4 -10 -49 -9 -107 2 -131 1 -125 27 -125 22 0 23 2
22 117 0 97 -3 118 -15 120 -8 2 -20 0 -25 -5z"/>
<path d="M1936 2083 c-3 -4 -6 -57 -6 -120 l0 -113 25 0 c24 0 25 2 25 78 l1
77 30 -77 c23 -58 35 -78 49 -78 11 0 22 10 26 23 3 12 14 40 24 62 10 22 20
47 23 55 3 8 6 -20 6 -62 1 -76 2 -78 25 -78 24 0 24 0 25 118 l1 118 -32 2
c-33 2 -34 1 -62 -73 -16 -42 -32 -78 -36 -80 -4 -2 -20 30 -36 73 -26 67 -32
77 -56 79 -14 1 -29 -1 -32 -4z"/>
<path d="M2326 2081 c-3 -5 -24 -59 -45 -120 l-39 -111 27 0 c20 0 29 7 37 28
10 27 26 31 87 23 4 -1 12 -12 17 -26 7 -18 17 -25 36 -25 21 0 25 4 19 18
-10 27 -75 215 -75 219 0 7 -59 2 -64 -6z m54 -122 c0 -11 -8 -16 -26 -16 -22
0 -25 3 -19 21 4 11 9 32 13 46 l5 25 13 -30 c7 -16 13 -37 14 -46z"/>
<path d="M2510 2068 c0 -10 5 -19 10 -19 6 -1 19 -3 30 -4 11 -1 24 -3 28 -4
5 0 8 -44 8 -96 l-1 -95 25 0 26 0 -1 91 c0 51 4 94 10 97 5 4 21 7 35 7 18 0
26 6 28 22 3 20 0 21 -97 20 -91 0 -101 -2 -101 -19z"/>
<path d="M2798 2074 c-15 -8 -30 -25 -34 -38 -11 -44 15 -69 91 -92 20 -7 30
-16 30 -29 0 -27 -48 -32 -72 -8 -10 10 -24 17 -30 17 -7 -1 -18 -2 -23 -3
-18 -2 18 -59 42 -67 36 -11 88 -6 114 11 17 11 24 25 24 49 0 38 -21 61 -65
72 -54 13 -66 23 -55 44 13 24 43 26 60 5 14 -17 60 -20 60 -5 0 6 -11 22 -25
35 -28 29 -75 32 -117 9z"/>
<path d="M3000 1970 l0 -120 25 0 c23 0 25 3 25 51 l0 50 52 -3 52 -3 -3 -47
c-2 -46 -1 -48 23 -48 23 0 26 4 27 38 1 45 1 172 0 189 -1 7 -12 12 -26 11
-23 -2 -25 -6 -25 -50 l0 -48 -50 0 -50 0 0 50 c0 47 -2 50 -25 50 l-25 0 0
-120z"/>
<path d="M3330 2083 c-24 -9 -60 -54 -62 -77 0 -12 0 -39 1 -61 4 -98 135
-133 195 -53 24 33 27 103 6 143 -24 44 -89 67 -140 48z m85 -57 c21 -21 22
-79 1 -110 -36 -55 -101 -18 -99 57 1 66 56 95 98 53z"/>
<path d="M3549 2081 c-1 -3 -2 -57 -3 -119 l-1 -112 26 0 c24 0 27 3 24 35 -1
19 1 36 4 36 3 1 16 3 27 4 49 5 70 16 87 44 16 27 16 34 3 64 -8 19 -20 38
-27 43 -17 10 -138 15 -140 5z m113 -49 c5 -5 8 -20 6 -33 -2 -20 -9 -24 -38
-24 -32 0 -35 2 -35 30 0 17 1 33 2 37 4 9 53 2 65 -10z"/>
<path d="M1930 1700 c0 -49 1 -50 29 -50 17 0 33 5 36 10 4 6 -5 10 -19 10
-14 0 -26 5 -26 10 0 6 9 10 20 10 11 0 20 5 20 10 0 6 -9 10 -20 10 -11 0
-20 5 -20 10 0 6 11 10 25 10 14 0 25 5 25 10 0 6 -16 10 -35 10 l-35 0 0 -50z"/>
<path d="M2054 1728 c-6 -13 -9 -29 -8 -35 1 -7 2 -17 3 -22 2 -14 38 -23 61
-16 30 9 24 26 -6 19 -30 -8 -44 8 -37 37 5 19 43 27 43 9 0 -5 5 -10 10 -10
16 0 11 27 -6 34 -30 12 -51 6 -60 -16z"/>
<path d="M2190 1731 c-22 -42 -5 -81 35 -81 28 0 45 19 45 50 0 14 -5 31 -12
38 -18 18 -56 14 -68 -7z m55 -31 c0 -31 -31 -39 -40 -11 -8 26 2 43 23 39 11
-2 17 -13 17 -28z"/>
<path d="M2318 1711 c-4 -45 -1 -61 13 -61 5 0 9 15 10 33 l1 32 9 -32 c11
-37 25 -42 34 -13 3 11 10 20 15 20 5 0 7 -9 5 -20 -2 -11 2 -20 8 -20 9 0 13
17 13 50 0 59 -19 67 -40 18 l-14 -33 -13 33 c-18 44 -36 40 -41 -7z"/>
<path d="M2477 1743 c-8 -17 0 -87 10 -90 7 -3 10 6 8 23 -2 26 -2 27 11 9 8
-10 14 -22 14 -27 0 -19 20 -6 26 17 6 26 19 26 19 -1 0 -7 4 -15 10 -16 8 -2
11 42 6 85 -2 18 -23 4 -35 -24 -13 -31 -25 -27 -39 14 -7 17 -23 23 -30 10z"/>
<path d="M2631 1700 c2 -50 2 -50 35 -50 19 0 34 5 34 10 0 6 -11 10 -25 10
-14 0 -25 5 -25 10 0 6 11 10 25 10 14 0 25 5 25 10 0 6 -11 10 -25 10 -14 0
-25 5 -25 10 0 6 11 10 25 10 14 0 25 5 25 10 0 6 -16 10 -35 10 l-35 0 1 -50z"/>
<path d="M2750 1701 c0 -49 19 -75 21 -28 l0 22 16 -22 c23 -34 30 -28 29 25
-1 46 -2 47 -33 50 l-33 3 0 -50z m48 17 c-6 -18 -28 -21 -28 -4 0 9 7 16 16
16 9 0 14 -5 12 -12z"/>
<path d="M2882 1738 c-16 -16 -15 -63 2 -78 22 -17 60 -8 65 15 3 17 1 18 -13
6 -21 -17 -46 -7 -46 19 0 26 25 36 46 19 14 -12 16 -11 13 6 -5 24 -48 32
-67 13z"/>
<path d="M3007 1743 c-2 -5 -3 -26 -3 -48 1 -38 3 -40 34 -43 18 -2 32 1 32 7
0 6 -11 11 -25 11 -14 0 -25 5 -25 10 0 6 11 10 25 10 14 0 25 5 25 10 0 6
-12 10 -26 10 -14 0 -23 4 -19 10 3 6 15 10 26 10 10 0 19 5 19 10 0 12 -57
14 -63 3z"/>
<path d="M3250 1720 c-69 -5 -75 -7 -77 -27 l-3 -23 255 0 255 0 0 25 0 24
-177 3 c-98 2 -212 1 -253 -2z"/>
<path d="M1300 1695 l0 -25 255 0 255 0 0 25 0 25 -255 0 -255 0 0 -25z"/>
</g>
</svg>
