<?xml version="1.0" standalone="no"?>
<!DOCTYPE svg PUBLIC "-//W3C//DTD SVG 20010904//EN"
 "http://www.w3.org/TR/2001/REC-SVG-20010904/DTD/svg10.dtd">
<svg version="1.0" xmlns="http://www.w3.org/2000/svg"
 width="500.000000pt" height="500.000000pt" viewBox="0 0 500.000000 500.000000"
 preserveAspectRatio="xMidYMid meet">
<metadata>
Created by potrace 1.14, written by Peter Selinger 2001-2017
</metadata>
<g transform="translate(0.000000,500.000000) scale(0.100000,-0.100000)"
fill="#000000" stroke="none">
<path d="M980 2910 l0 -730 1515 0 1515 0 0 730 0 730 -1515 0 -1515 0 0 -730z
m3010 0 l0 -700 -1490 0 -1490 0 0 700 0 700 1490 0 1490 0 0 -700z"/>
<path d="M1130 2885 l0 -605 1360 0 1360 0 0 605 0 605 -1360 0 -1360 0 0
-605z m620 250 c16 -8 34 -23 39 -33 5 -10 37 -122 71 -248 34 -126 64 -238
67 -248 5 -17 1 -18 -41 -14 -55 7 -92 36 -104 82 -8 30 -10 31 -74 34 l-66 3
-7 -30 c-10 -46 -67 -91 -115 -91 -27 0 -38 4 -35 13 2 6 31 114 65 240 69
260 72 267 108 290 34 21 55 21 92 2z m536 0 c85 -25 126 -85 126 -185 0 -66
-14 -105 -50 -144 -36 -37 -63 -48 -147 -55 l-69 -6 -8 -38 c-4 -21 -15 -48
-22 -59 -19 -27 -66 -58 -88 -58 -17 0 -18 18 -18 233 0 202 2 236 17 257 18
26 46 50 73 62 27 12 135 8 186 -7z m1044 0 c16 -8 34 -23 39 -33 5 -10 37
-122 71 -248 34 -126 64 -238 67 -248 5 -17 1 -18 -41 -14 -55 7 -92 36 -104
82 -8 30 -10 31 -74 34 l-66 3 -7 -30 c-10 -46 -67 -91 -115 -91 -27 0 -38 4
-35 13 2 6 31 114 65 240 69 260 72 267 108 290 34 21 55 21 92 2z m-577 -152
l107 -157 0 108 c0 76 5 118 15 140 17 35 61 66 94 66 21 0 21 -3 21 -212 0
-117 -5 -230 -10 -250 -19 -65 -120 -123 -120 -68 0 11 -49 86 -110 167 l-110
146 0 -122 c0 -130 -9 -165 -52 -195 -12 -9 -33 -16 -45 -16 l-23 0 0 230 c0
252 4 275 58 304 54 30 61 24 175 -141z"/>
<path d="M1683 2895 l-20 -85 44 0 c38 0 44 3 39 18 -3 9 -12 46 -21 82 -9 36
-18 66 -19 67 -1 1 -11 -36 -23 -82z"/>
<path d="M2140 2940 l0 -70 45 0 c77 0 118 62 79 118 -12 18 -25 22 -70 22
l-54 0 0 -70z"/>
<path d="M3263 2895 l-20 -85 44 0 c38 0 44 3 39 18 -3 9 -12 46 -21 82 -9 36
-18 66 -19 67 -1 1 -11 -36 -23 -82z"/>
<path d="M3510 1948 c-65 -44 -70 -66 -70 -315 0 -243 -1 -239 58 -203 39 24
72 75 72 113 0 24 4 27 33 27 28 0 36 -7 71 -61 56 -87 101 -112 161 -89 l26
10 -55 81 -54 82 29 24 c46 39 63 80 63 153 0 131 -65 191 -214 198 -76 3 -89
1 -120 -20z m189 -134 c28 -35 26 -69 -4 -99 -19 -20 -34 -25 -75 -25 l-50 0
0 75 0 75 54 0 c47 0 57 -4 75 -26z"/>
<path d="M1202 1940 c-18 -11 -37 -32 -42 -46 -6 -14 -10 -129 -10 -256 l0
-230 28 6 c15 4 34 7 42 6 202 -16 239 -7 278 70 30 57 27 154 -4 197 -18 25
-19 31 -7 53 19 34 12 120 -13 153 -31 44 -91 67 -170 67 -51 0 -77 -5 -102
-20z m172 -96 c19 -18 21 -75 4 -92 -7 -7 -36 -12 -65 -12 l-53 0 0 53 c0 30
3 57 7 60 13 14 92 7 107 -9z m30 -236 c6 -18 6 -38 0 -55 -9 -26 -13 -28 -77
-31 l-67 -3 0 61 0 61 67 -3 c64 -3 68 -5 77 -30z"/>
<path d="M1716 1938 c-21 -19 -37 -65 -92 -271 -37 -136 -64 -250 -61 -254 11
-10 75 7 101 28 14 11 30 38 36 60 l11 39 65 0 c53 0 66 -3 70 -17 18 -58 37
-85 69 -99 47 -19 75 -18 75 4 -1 9 -29 123 -64 252 -54 199 -68 237 -90 257
-35 30 -87 30 -120 1z m88 -224 c22 -85 22 -84 -29 -84 -25 0 -45 3 -45 7 0 4
10 42 21 86 24 87 28 87 53 -9z"/>
<path d="M2675 1937 c-23 -19 -36 -58 -91 -261 -35 -131 -64 -245 -64 -252 0
-18 32 -18 75 0 32 14 51 41 69 99 4 14 17 17 70 17 l65 0 12 -41 c7 -22 23
-49 37 -59 25 -20 88 -37 99 -27 3 4 -24 118 -61 254 -55 207 -70 252 -92 271
-33 29 -85 29 -119 -1z m100 -274 l7 -33 -47 0 -47 0 6 34 c4 19 14 58 23 88
l16 53 17 -55 c10 -30 21 -70 25 -87z"/>
<path d="M3133 1945 c-12 -8 -28 -36 -37 -63 -30 -92 -126 -465 -122 -470 10
-9 75 9 100 29 14 11 31 38 37 60 l12 40 66 -3 c64 -3 66 -4 74 -35 14 -46 57
-84 106 -90 22 -3 41 -4 41 -2 0 2 -31 118 -69 258 -75 278 -82 290 -151 291
-20 0 -45 -7 -57 -15z m85 -237 l20 -78 -50 0 c-42 0 -49 2 -44 18 3 9 13 48
22 85 9 38 20 65 25 60 4 -4 16 -43 27 -85z"/>
<path d="M2099 1921 c-17 -17 -29 -40 -29 -55 l0 -26 110 0 c61 0 110 -4 110
-9 0 -4 -52 -77 -116 -162 -120 -159 -137 -185 -148 -231 l-6 -28 175 0 c137
0 182 3 205 15 35 18 60 52 60 82 0 22 -3 22 -115 25 l-115 3 111 155 c105
146 148 218 149 248 0 9 -43 12 -181 12 l-181 0 -29 -29z"/>
</g>
</svg>
